<svg width="1441" height="1016" viewBox="0 0 1441 1016" fill="none" xmlns="http://www.w3.org/2000/svg">
<g opacity="0.7">
<mask id="mask0_281_1579" style="mask-type:alpha" maskUnits="userSpaceOnUse" x="-16" y="-65" width="1457" height="1081">
<rect x="-15.4196" y="-65" width="1456" height="1081" fill="white"/>
</mask>
<g mask="url(#mask0_281_1579)">
<g filter="url(#filter0_f_281_1579)">
<path d="M-49.7225 365.036L204.638 365.036C204.638 365.036 713.36 961.645 -49.7225 1096.64L-49.7225 365.036Z" fill="#EEF3FF"/>
</g>
<g filter="url(#filter1_f_281_1579)">
<path d="M1461.85 1041.13L-14.9484 1041.13C-14.9484 1041.13 1068.31 192.236 1311.65 553.352C1541.89 895.022 1461.85 1041.13 1461.85 1041.13Z" fill="#5280FF" fill-opacity="0.06"/>
</g>
<g filter="url(#filter2_f_281_1579)">
<path d="M661.087 671.105L1173.46 1181.55C1173.46 1181.55 800.003 870.675 465.297 1161.2L661.087 671.105Z" fill="#00FFFF" fill-opacity="0.04"/>
</g>
<g filter="url(#filter3_f_281_1579)">
<path d="M219.67 477.353L-409.849 114.463C-409.849 114.463 32.8627 319.873 279.552 -45.7816L219.67 477.353Z" fill="#00FFFF" fill-opacity="0.04"/>
</g>
<g filter="url(#filter4_f_281_1579)">
<path d="M-25.5877 337.649L-25.5876 -67.4083C-25.5876 -67.4083 233.296 229.708 123.169 296.452C18.9713 359.601 -25.5877 337.649 -25.5877 337.649Z" fill="#5280FF" fill-opacity="0.08"/>
</g>
</g>
<g opacity="0.6">
<path d="M-223.831 1089.67C-182.002 1044.19 -12.5008 804.264 292.067 804.264C672.777 804.264 885.562 1363.31 1459.66 901.488" stroke="white" stroke-width="0.987317"/>
<path d="M-223.831 588.175C-182.002 542.699 -12.5008 302.773 292.067 302.773C672.777 302.773 885.562 861.815 1459.66 399.998" stroke="white" stroke-width="0.987317"/>
<path d="M-223.831 1073.49C-182.002 1028.01 -12.5008 788.087 292.067 788.087C672.777 788.087 885.562 1347.13 1459.66 885.311" stroke="white" stroke-width="0.987317"/>
<path d="M-223.831 1057.31C-182.002 1011.84 -12.5008 771.91 292.067 771.91C672.777 771.91 885.562 1330.95 1459.66 869.135" stroke="white" stroke-width="0.987317"/>
<path d="M-223.831 1041.13C-182.002 995.658 -12.5008 755.733 292.067 755.733C672.777 755.733 885.562 1314.77 1459.66 852.957" stroke="white" stroke-width="0.987317"/>
<path d="M-223.831 1024.96C-182.002 979.48 -12.5008 739.555 292.067 739.555C672.777 739.555 885.562 1298.6 1459.66 836.78" stroke="white" stroke-width="0.987317"/>
<path d="M-223.831 1008.78C-182.002 963.303 -12.5008 723.378 292.067 723.378C672.777 723.378 885.562 1282.42 1459.66 820.603" stroke="white" stroke-width="0.987317"/>
<path d="M-223.831 992.603C-182.002 947.127 -12.5008 707.201 292.067 707.201C672.777 707.201 885.562 1266.24 1459.66 804.426" stroke="white" stroke-width="0.987317"/>
<path d="M-223.831 976.426C-182.002 930.95 -12.5008 691.024 292.067 691.024C672.777 691.024 885.562 1250.07 1459.66 788.249" stroke="white" stroke-width="0.987317"/>
<path d="M-223.831 960.249C-182.002 914.773 -12.5008 674.847 292.067 674.847C672.777 674.847 885.562 1233.89 1459.66 772.072" stroke="white" stroke-width="0.987317"/>
<path d="M-223.831 944.071C-182.002 898.595 -12.5008 658.67 292.067 658.67C672.777 658.67 885.562 1217.71 1459.66 755.895" stroke="white" stroke-width="0.987317"/>
<path d="M-223.831 927.894C-182.002 882.418 -12.5008 642.493 292.067 642.493C672.777 642.493 885.562 1201.53 1459.66 739.718" stroke="white" stroke-width="0.987317"/>
<path d="M-223.831 911.717C-182.002 866.241 -12.5008 626.316 292.067 626.316C672.777 626.316 885.562 1185.36 1459.66 723.541" stroke="white" stroke-width="0.987317"/>
<path d="M-223.831 895.54C-182.002 850.064 -12.5008 610.139 292.067 610.139C672.777 610.139 885.562 1169.18 1459.66 707.363" stroke="white" stroke-width="0.987317"/>
<path d="M-223.831 879.363C-182.002 833.887 -12.5008 593.961 292.067 593.961C672.777 593.961 885.562 1153 1459.66 691.186" stroke="white" stroke-width="0.987317"/>
<path d="M-223.831 863.186C-182.002 817.71 -12.5008 577.785 292.067 577.785C672.777 577.785 885.562 1136.83 1459.66 675.009" stroke="white" stroke-width="0.987317"/>
<path d="M-223.831 847.009C-182.002 801.533 -12.5008 561.608 292.067 561.608C672.777 561.608 885.562 1120.65 1459.66 658.832" stroke="white" stroke-width="0.987317"/>
<path d="M-223.831 830.831C-182.002 785.355 -12.5008 545.43 292.067 545.43C672.777 545.43 885.562 1104.47 1459.66 642.655" stroke="white" stroke-width="0.987317"/>
<path d="M-223.831 814.654C-182.002 769.178 -12.5008 529.253 292.067 529.253C672.777 529.253 885.562 1088.29 1459.66 626.477" stroke="white" stroke-width="0.987317"/>
<path d="M-223.831 798.477C-182.002 753.001 -12.5008 513.076 292.067 513.076C672.777 513.076 885.562 1072.12 1459.66 610.3" stroke="white" stroke-width="0.987317"/>
<path d="M-223.831 782.3C-182.002 736.824 -12.5008 496.899 292.067 496.899C672.777 496.899 885.562 1055.94 1459.66 594.124" stroke="white" stroke-width="0.987317"/>
<path d="M-223.831 766.123C-182.002 720.647 -12.5008 480.722 292.067 480.722C672.777 480.722 885.562 1039.76 1459.66 577.946" stroke="white" stroke-width="0.987317"/>
<path d="M-223.831 749.945C-182.002 704.469 -12.5008 464.544 292.067 464.544C672.777 464.544 885.562 1023.59 1459.66 561.769" stroke="white" stroke-width="0.987317"/>
<path d="M-223.831 733.769C-182.002 688.293 -12.5008 448.368 292.067 448.368C672.777 448.368 885.562 1007.41 1459.66 545.592" stroke="white" stroke-width="0.987317"/>
<path d="M-223.831 717.592C-182.002 672.115 -12.5008 432.19 292.067 432.19C672.777 432.19 885.562 991.232 1459.66 529.415" stroke="white" stroke-width="0.987317"/>
<path d="M-223.831 701.414C-182.002 655.938 -12.5008 416.013 292.067 416.013C672.777 416.013 885.562 975.054 1459.66 513.238" stroke="white" stroke-width="0.987317"/>
<path d="M-223.831 685.237C-182.002 639.761 -12.5008 399.836 292.067 399.836C672.777 399.836 885.562 958.877 1459.66 497.061" stroke="white" stroke-width="0.987317"/>
<path d="M-223.831 669.061C-182.002 623.585 -12.5008 383.659 292.067 383.659C672.777 383.659 885.562 942.701 1459.66 480.884" stroke="white" stroke-width="0.987317"/>
<path d="M-223.831 652.883C-182.002 607.407 -12.5008 367.482 292.067 367.482C672.777 367.482 885.562 926.524 1459.66 464.707" stroke="white" stroke-width="0.987317"/>
<path d="M-223.831 636.706C-182.002 591.23 -12.5008 351.305 292.067 351.305C672.777 351.305 885.562 910.346 1459.66 448.529" stroke="white" stroke-width="0.987317"/>
<path d="M-223.831 620.529C-182.002 575.053 -12.5008 335.127 292.067 335.127C672.777 335.127 885.562 894.169 1459.66 432.352" stroke="white" stroke-width="0.987317"/>
<path d="M-223.831 604.352C-182.002 558.876 -12.5008 318.951 292.067 318.951C672.777 318.951 885.562 877.992 1459.66 416.175" stroke="white" stroke-width="0.987317"/>
</g>
<g opacity="0.8">
<path d="M-137.321 399.072C-95.4913 372.167 74.0095 230.218 378.577 230.218C759.287 230.218 972.073 560.968 1546.17 287.74" stroke="white" stroke-width="0.987317"/>
<path d="M-137.321 102.371C-95.4913 75.4659 74.0095 -66.483 378.577 -66.483C759.287 -66.483 972.073 264.267 1546.17 -8.96125" stroke="white" stroke-width="0.987317"/>
<path d="M-137.321 389.501C-95.4913 362.596 74.0095 220.647 378.577 220.647C759.287 220.647 972.073 551.397 1546.17 278.169" stroke="white" stroke-width="0.987317"/>
<path d="M-137.321 379.93C-95.4913 353.025 74.0095 211.076 378.577 211.076C759.287 211.076 972.073 541.826 1546.17 268.598" stroke="white" stroke-width="0.987317"/>
<path d="M-137.321 370.359C-95.4913 343.454 74.0095 201.505 378.577 201.505C759.287 201.505 972.073 532.255 1546.17 259.027" stroke="white" stroke-width="0.987317"/>
<path d="M-137.321 360.788C-95.4913 333.883 74.0095 191.934 378.577 191.934C759.287 191.934 972.073 522.684 1546.17 249.456" stroke="white" stroke-width="0.987317"/>
<path d="M-137.321 351.217C-95.4913 324.312 74.0095 182.363 378.577 182.363C759.287 182.363 972.073 513.113 1546.17 239.885" stroke="white" stroke-width="0.987317"/>
<path d="M-137.321 341.646C-95.4913 314.741 74.0095 172.792 378.577 172.792C759.287 172.792 972.073 503.542 1546.17 230.314" stroke="white" stroke-width="0.987317"/>
<path d="M-137.321 332.075C-95.4913 305.17 74.0095 163.221 378.577 163.221C759.287 163.221 972.073 493.971 1546.17 220.743" stroke="white" stroke-width="0.987317"/>
<path d="M-137.321 322.504C-95.4913 295.599 74.0095 153.65 378.577 153.65C759.287 153.65 972.073 484.4 1546.17 211.172" stroke="white" stroke-width="0.987317"/>
<path d="M-137.321 312.933C-95.4913 286.028 74.0095 144.079 378.577 144.079C759.287 144.079 972.073 474.829 1546.17 201.601" stroke="white" stroke-width="0.987317"/>
<path d="M-137.321 303.362C-95.4913 276.457 74.0095 134.508 378.577 134.508C759.287 134.508 972.073 465.258 1546.17 192.03" stroke="white" stroke-width="0.987317"/>
<path d="M-137.321 293.791C-95.4913 266.886 74.0095 124.937 378.577 124.937C759.287 124.937 972.073 455.687 1546.17 182.459" stroke="white" stroke-width="0.987317"/>
<path d="M-137.321 284.22C-95.4913 257.315 74.0095 115.366 378.577 115.366C759.287 115.366 972.073 446.116 1546.17 172.888" stroke="white" stroke-width="0.987317"/>
<path d="M-137.321 274.649C-95.4913 247.744 74.0095 105.795 378.577 105.795C759.287 105.795 972.073 436.545 1546.17 163.317" stroke="white" stroke-width="0.987317"/>
<path d="M-137.321 265.078C-95.4913 238.173 74.0095 96.224 378.577 96.224C759.287 96.224 972.073 426.974 1546.17 153.746" stroke="white" stroke-width="0.987317"/>
<path d="M-137.321 255.507C-95.4913 228.602 74.0095 86.6531 378.577 86.6531C759.287 86.6531 972.073 417.403 1546.17 144.175" stroke="white" stroke-width="0.987317"/>
<path d="M-137.321 245.936C-95.4913 219.031 74.0095 77.0819 378.577 77.0819C759.287 77.0819 972.073 407.832 1546.17 134.604" stroke="white" stroke-width="0.987317"/>
<path d="M-137.321 236.365C-95.4913 209.46 74.0095 67.5108 378.577 67.5108C759.287 67.5108 972.073 398.261 1546.17 125.033" stroke="white" stroke-width="0.987317"/>
<path d="M-137.321 226.794C-95.4913 199.889 74.0095 57.9399 378.577 57.9399C759.287 57.9399 972.073 388.69 1546.17 115.462" stroke="white" stroke-width="0.987317"/>
<path d="M-137.321 217.223C-95.4913 190.318 74.0095 48.369 378.577 48.369C759.287 48.369 972.073 379.119 1546.17 105.891" stroke="white" stroke-width="0.987317"/>
<path d="M-137.321 207.652C-95.4913 180.747 74.0095 38.7979 378.577 38.7979C759.287 38.7979 972.073 369.548 1546.17 96.3197" stroke="white" stroke-width="0.987317"/>
<path d="M-137.321 198.081C-95.4913 171.176 74.0095 29.2267 378.577 29.2267C759.287 29.2267 972.073 359.977 1546.17 86.7485" stroke="white" stroke-width="0.987317"/>
<path d="M-137.321 188.51C-95.4913 161.605 74.0095 19.6561 378.577 19.6561C759.287 19.6561 972.073 350.406 1546.17 77.1779" stroke="white" stroke-width="0.987317"/>
<path d="M-137.321 178.939C-95.4913 152.034 74.0095 10.085 378.577 10.085C759.287 10.085 972.073 340.835 1546.17 67.6068" stroke="white" stroke-width="0.987317"/>
<path d="M-137.321 169.368C-95.4913 142.463 74.0095 0.513855 378.577 0.513855C759.287 0.513855 972.073 331.264 1546.17 58.0356" stroke="white" stroke-width="0.987317"/>
<path d="M-137.321 159.797C-95.4913 132.892 74.0095 -9.05725 378.577 -9.05725C759.287 -9.05725 972.073 321.693 1546.17 48.4645" stroke="white" stroke-width="0.987317"/>
<path d="M-137.321 150.226C-95.4913 123.321 74.0095 -18.6279 378.577 -18.6279C759.287 -18.6279 972.073 312.122 1546.17 38.8938" stroke="white" stroke-width="0.987317"/>
<path d="M-137.321 140.655C-95.4913 113.75 74.0095 -28.199 378.577 -28.199C759.287 -28.199 972.073 302.551 1546.17 29.3227" stroke="white" stroke-width="0.987317"/>
<path d="M-137.321 131.084C-95.4913 104.179 74.0095 -37.7701 378.577 -37.7701C759.287 -37.7701 972.073 292.98 1546.17 19.7516" stroke="white" stroke-width="0.987317"/>
<path d="M-137.321 121.513C-95.4913 94.6076 74.0095 -47.3413 378.577 -47.3413C759.287 -47.3413 972.073 283.409 1546.17 10.1805" stroke="white" stroke-width="0.987317"/>
<path d="M-137.321 111.942C-95.4913 85.0369 74.0095 -56.912 378.577 -56.912C759.287 -56.912 972.073 273.838 1546.17 0.609788" stroke="white" stroke-width="0.987317"/>
</g>
</g>
<defs>
<filter id="filter0_f_281_1579" x="-217.566" y="197.192" width="756.162" height="1067.29" filterUnits="userSpaceOnUse" color-interpolation-filters="sRGB">
<feFlood flood-opacity="0" result="BackgroundImageFix"/>
<feBlend mode="normal" in="SourceGraphic" in2="BackgroundImageFix" result="shape"/>
<feGaussianBlur stdDeviation="83.9219" result="effect1_foregroundBlur_281_1579"/>
</filter>
<filter id="filter1_f_281_1579" x="-182.792" y="296.058" width="1825.95" height="912.92" filterUnits="userSpaceOnUse" color-interpolation-filters="sRGB">
<feFlood flood-opacity="0" result="BackgroundImageFix"/>
<feBlend mode="normal" in="SourceGraphic" in2="BackgroundImageFix" result="shape"/>
<feGaussianBlur stdDeviation="83.9219" result="effect1_foregroundBlur_281_1579"/>
</filter>
<filter id="filter2_f_281_1579" x="297.453" y="503.261" width="1043.85" height="846.131" filterUnits="userSpaceOnUse" color-interpolation-filters="sRGB">
<feFlood flood-opacity="0" result="BackgroundImageFix"/>
<feBlend mode="normal" in="SourceGraphic" in2="BackgroundImageFix" result="shape"/>
<feGaussianBlur stdDeviation="83.9219" result="effect1_foregroundBlur_281_1579"/>
</filter>
<filter id="filter3_f_281_1579" x="-577.693" y="-213.625" width="1025.09" height="858.822" filterUnits="userSpaceOnUse" color-interpolation-filters="sRGB">
<feFlood flood-opacity="0" result="BackgroundImageFix"/>
<feBlend mode="normal" in="SourceGraphic" in2="BackgroundImageFix" result="shape"/>
<feGaussianBlur stdDeviation="83.9219" result="effect1_foregroundBlur_281_1579"/>
</filter>
<filter id="filter4_f_281_1579" x="-193.432" y="-235.252" width="511.723" height="744.437" filterUnits="userSpaceOnUse" color-interpolation-filters="sRGB">
<feFlood flood-opacity="0" result="BackgroundImageFix"/>
<feBlend mode="normal" in="SourceGraphic" in2="BackgroundImageFix" result="shape"/>
<feGaussianBlur stdDeviation="83.9219" result="effect1_foregroundBlur_281_1579"/>
</filter>
</defs>
</svg>
