<svg width="19" height="18" viewBox="0 0 19 18" fill="none" xmlns="http://www.w3.org/2000/svg">
<path fill-rule="evenodd" clip-rule="evenodd" d="M6.08611 7.56345L9.58215 4.06893L13.0796 7.56629L15.1127 5.53185L9.58215 6.10352e-05L4.05161 5.53043L6.08611 7.56345ZM0.580475 9.00034L2.61423 6.96664L4.64799 9.00034L2.61423 11.034L0.580475 9.00034ZM9.58212 13.9325L6.08608 10.4365L4.04874 12.4681L4.05158 12.471L9.58212 17.9999L15.1127 12.4681L15.1141 12.4667L13.0796 10.4351L9.58212 13.9325ZM14.5126 9.00079L16.5464 6.9671L18.5801 9.00079L16.5464 11.0345L14.5126 9.00079ZM9.5818 6.93488L11.6447 8.99917H11.6462L11.6447 9.00059L9.5818 11.0649L7.51887 9.00343L7.51602 8.99917L7.51887 8.99632L7.87999 8.63522L8.05628 8.46035L9.5818 6.93488Z" fill="#F3BA2F"/>
</svg>
