<svg width="217" height="106" viewBox="0 0 217 106" fill="none" xmlns="http://www.w3.org/2000/svg">
<g opacity="0.2">
<path d="M-27.3513 29.5798C-18.2677 27.8204 20.762 15.0412 73.6836 35.8486C139.836 61.8578 154.493 133.153 272.683 125.487" stroke="white"/>
<path d="M-37.1331 67.208C-28.0495 65.4486 10.9803 52.6694 63.9019 73.4768C130.054 99.486 144.711 170.781 262.901 163.115" stroke="white"/>
<path d="M-34.7705 58.1525C-25.6869 56.3931 13.3429 43.6138 66.2644 64.4212C132.416 90.4305 147.074 161.726 265.263 154.059" stroke="white"/>
<path d="M-32.4783 49.0882C-23.337 47.1822 15.9968 33.6297 68.9184 54.4371C135.07 80.4463 149.019 153.544 267.794 144.389" stroke="white"/>
<path d="M-29.8244 39.1041C-20.712 37.2714 18.4698 24.1055 71.3914 44.9129C137.543 70.9221 151.847 143.119 270.329 134.708" stroke="white"/>
</g>
</svg>
