<svg width="25" height="24" viewBox="0 0 25 24" fill="none" xmlns="http://www.w3.org/2000/svg">
<path d="M22.0804 10.9V4.1C22.0804 2.6 21.4404 2 19.8504 2L15.8104 2C14.2204 2 13.5804 2.6 13.5804 4.1L13.5804 10.9C13.5804 12.4 14.2204 13 15.8104 13L19.8504 13C21.4404 13 22.0804 12.4 22.0804 10.9Z" fill="#00DEA3"/>
<path d="M11.5804 13.1L11.5804 19.9C11.5804 21.4 10.9404 22 9.35038 22H5.31038C3.72038 22 3.08038 21.4 3.08038 19.9L3.08038 13.1C3.08038 11.6 3.72038 11 5.31038 11L9.35038 11C10.9404 11 11.5804 11.6 11.5804 13.1Z" fill="#00DEA3"/>
<path d="M22.0804 19.9V17.1C22.0804 15.6 21.4404 15 19.8504 15L15.8104 15C14.2204 15 13.5804 15.6 13.5804 17.1V19.9C13.5804 21.4 14.2204 22 15.8104 22H19.8504C21.4404 22 22.0804 21.4 22.0804 19.9Z" fill="#00DEA3"/>
<path d="M11.5804 6.9V4.1C11.5804 2.6 10.9404 2 9.35038 2L5.31038 2C3.72038 2 3.08038 2.6 3.08038 4.1L3.08038 6.9C3.08038 8.4 3.72038 9 5.31038 9H9.35038C10.9404 9 11.5804 8.4 11.5804 6.9Z" fill="#00DEA3"/>
</svg>
