<svg width="13" height="12" viewBox="0 0 13 12" fill="none" xmlns="http://www.w3.org/2000/svg">
<path d="M9.22026 5.59999C9.12526 5.59999 9.03025 5.56498 8.95525 5.48998C8.81025 5.34498 8.81025 5.10498 8.95525 4.95998L10.5502 3.36498L8.95525 1.76997C8.81025 1.62497 8.81025 1.38498 8.95525 1.23998C9.10025 1.09498 9.34025 1.09498 9.48525 1.23998L11.3453 3.09999C11.4153 3.16999 11.4552 3.26498 11.4552 3.36498C11.4552 3.46498 11.4153 3.55999 11.3453 3.62999L9.48525 5.48998C9.41025 5.55998 9.31526 5.59999 9.22026 5.59999Z" fill="#292D32"/>
<path d="M11.0804 3.73999H2.08038C1.87538 3.73999 1.70538 3.56999 1.70538 3.36499C1.70538 3.15999 1.87538 2.98999 2.08038 2.98999H11.0804C11.2854 2.98999 11.4554 3.15999 11.4554 3.36499C11.4554 3.56999 11.2854 3.73999 11.0804 3.73999Z" fill="#292D32"/>
<path d="M3.94037 10.875C3.84537 10.875 3.75038 10.84 3.67538 10.765L1.81537 8.90498C1.74537 8.83498 1.70538 8.74 1.70538 8.64C1.70538 8.54 1.74537 8.44499 1.81537 8.37499L3.67538 6.515C3.82038 6.37 4.06038 6.37 4.20538 6.515C4.35038 6.66 4.35038 6.9 4.20538 7.045L2.61038 8.64L4.20538 10.235C4.35038 10.38 4.35038 10.62 4.20538 10.765C4.13538 10.84 4.04037 10.875 3.94037 10.875Z" fill="#292D32"/>
<path d="M11.0804 9.01001H2.08038C1.87538 9.01001 1.70538 8.84001 1.70538 8.63501C1.70538 8.43001 1.87538 8.26001 2.08038 8.26001H11.0804C11.2854 8.26001 11.4554 8.43001 11.4554 8.63501C11.4554 8.84001 11.2854 9.01001 11.0804 9.01001Z" fill="#292D32"/>
</svg>
