<svg width="25" height="24" viewBox="0 0 25 24" fill="none" xmlns="http://www.w3.org/2000/svg">
<path d="M12.6004 2.91C9.29038 2.91 6.60038 5.6 6.60038 8.91V11.8C6.60038 12.41 6.34038 13.34 6.03038 13.86L4.88038 15.77C4.17038 16.95 4.66038 18.26 5.96038 18.7C10.2704 20.14 14.9204 20.14 19.2304 18.7C20.4404 18.3 20.9704 16.87 20.3104 15.77L19.1604 13.86C18.8604 13.34 18.6004 12.41 18.6004 11.8V8.91C18.6004 5.61 15.9004 2.91 12.6004 2.91Z" stroke="#333333" stroke-width="1.5" stroke-miterlimit="10" stroke-linecap="round"/>
<circle cx="19.6004" cy="5.93994" r="4" fill="#F23985"/>
<path d="M14.4504 3.2C14.1404 3.11 13.8204 3.04 13.4904 3C12.5304 2.88 11.6104 2.95 10.7504 3.2C11.0404 2.46 11.7604 1.94 12.6004 1.94C13.4404 1.94 14.1604 2.46 14.4504 3.2Z" stroke="#333333" stroke-width="1.5" stroke-miterlimit="10" stroke-linecap="round" stroke-linejoin="round"/>
<path d="M15.6004 19.06C15.6004 20.71 14.2504 22.06 12.6004 22.06C11.7804 22.06 11.0204 21.72 10.4804 21.18C9.94037 20.64 9.60037 19.88 9.60037 19.06" stroke="#333333" stroke-width="1.5" stroke-miterlimit="10"/>
</svg>
