<svg width="25" height="24" viewBox="0 0 25 24" fill="none" xmlns="http://www.w3.org/2000/svg">
<path d="M18.1104 7.77C18.0404 7.76 17.9704 7.76 17.9004 7.77C16.3504 7.72 15.1204 6.45 15.1204 4.89C15.1204 3.3 16.4104 2 18.0104 2C19.6004 2 20.9004 3.29 20.9004 4.89C20.8904 6.45 19.6604 7.72 18.1104 7.77Z" fill="#F4FFFC"/>
<path d="M21.3704 14.7C20.2504 15.45 18.6804 15.73 17.2304 15.54C17.6104 14.72 17.8104 13.81 17.8204 12.85C17.8204 11.85 17.6004 10.9 17.1804 10.07C18.6604 9.87001 20.2304 10.15 21.3604 10.9C22.9404 11.94 22.9404 13.65 21.3704 14.7Z" fill="#F4FFFC"/>
<path d="M7.02039 7.77C7.09039 7.76 7.16039 7.76 7.23039 7.77C8.78039 7.72 10.0104 6.45 10.0104 4.89C10.0104 3.29 8.72039 2 7.12039 2C5.53039 2 4.24039 3.29 4.24039 4.89C4.24039 6.45 5.47039 7.72 7.02039 7.77Z" fill="#F4FFFC"/>
<path d="M7.13038 12.85C7.13038 13.82 7.34038 14.74 7.72038 15.57C6.31038 15.72 4.84038 15.42 3.76038 14.71C2.18038 13.66 2.18038 11.95 3.76038 10.9C4.83038 10.18 6.34038 9.89001 7.76038 10.05C7.35038 10.89 7.13038 11.84 7.13038 12.85Z" fill="#F4FFFC"/>
<path d="M12.7004 15.87C12.6204 15.86 12.5304 15.86 12.4404 15.87C10.6004 15.81 9.13037 14.3 9.13037 12.44C9.14037 10.54 10.6704 9 12.5804 9C14.4804 9 16.0204 10.54 16.0204 12.44C16.0104 14.3 14.5504 15.81 12.7004 15.87Z" fill="#F4FFFC"/>
<path d="M9.45037 17.94C7.94037 18.95 7.94037 20.61 9.45037 21.61C11.1704 22.76 13.9904 22.76 15.7104 21.61C17.2204 20.6 17.2204 18.94 15.7104 17.94C14.0004 16.79 11.1804 16.79 9.45037 17.94Z" fill="#F4FFFC"/>
</svg>
