<svg width="105" height="104" viewBox="0 0 105 104" fill="none" xmlns="http://www.w3.org/2000/svg">
<g filter="url(#filter0_d_281_1857)">
<circle cx="52.5804" cy="46" r="36" fill="white"/>
</g>
<path opacity="0.4" d="M66.7248 43.8275C66.7248 51.9775 60.8081 59.6109 52.7248 61.8442C52.1748 61.9942 51.5748 61.9942 51.0248 61.8442C42.9414 59.6109 37.0248 51.9775 37.0248 43.8275V36.5109C37.0248 35.1442 38.0581 33.5942 39.3415 33.0776L48.6248 29.2776C50.7081 28.4276 53.0581 28.4276 55.1414 29.2776L64.4248 33.0776C65.6915 33.5942 66.7415 35.1442 66.7415 36.5109L66.7248 43.8275Z" fill="#00DEA3"/>
<path d="M56.0415 42.7942C56.0415 40.4942 54.1748 38.6276 51.8748 38.6276C49.5748 38.6276 47.7081 40.4942 47.7081 42.7942C47.7081 44.6609 48.9415 46.2109 50.6248 46.7442V51.1276C50.6248 51.8109 51.1915 52.3776 51.8748 52.3776C52.5581 52.3776 53.1248 51.8109 53.1248 51.1276V46.7442C54.8081 46.2109 56.0415 44.6609 56.0415 42.7942Z" fill="#00DEA3"/>
<defs>
<filter id="filter0_d_281_1857" x="0.580383" y="0" width="104" height="104" filterUnits="userSpaceOnUse" color-interpolation-filters="sRGB">
<feFlood flood-opacity="0" result="BackgroundImageFix"/>
<feColorMatrix in="SourceAlpha" type="matrix" values="0 0 0 0 0 0 0 0 0 0 0 0 0 0 0 0 0 0 127 0" result="hardAlpha"/>
<feOffset dy="6"/>
<feGaussianBlur stdDeviation="8"/>
<feColorMatrix type="matrix" values="0 0 0 0 0 0 0 0 0 0.870588 0 0 0 0 0.639216 0 0 0 0.16 0"/>
<feBlend mode="normal" in2="BackgroundImageFix" result="effect1_dropShadow_281_1857"/>
<feBlend mode="normal" in="SourceGraphic" in2="effect1_dropShadow_281_1857" result="shape"/>
</filter>
</defs>
</svg>
