<svg width="832" height="218" viewBox="0 0 832 218" fill="none" xmlns="http://www.w3.org/2000/svg">
<mask id="mask0_281_1740" style="mask-type:alpha" maskUnits="userSpaceOnUse" x="0" y="0" width="832" height="218">
<rect x="0.580383" y="0.166039" width="831.004" height="217.015" rx="16" fill="white"/>
</mask>
<g mask="url(#mask0_281_1740)">
<path d="M12.6062 77.3033H-13.2004C-14.3049 77.3033 -15.2004 78.1987 -15.2004 79.3033V153.672C-15.2004 154.777 -14.3049 155.672 -13.2004 155.672H848.107C849.212 155.672 850.107 154.777 850.107 153.672V79.3033C850.107 78.1987 849.212 77.3033 848.107 77.3033H712.173C711.694 77.3033 711.23 77.1309 710.867 76.8176L679.421 49.69C678.702 49.0695 677.645 49.0405 676.893 49.6206L653.739 67.4778C653.03 68.0248 652.043 68.0335 651.324 67.4989L627.097 49.4817C626.408 48.9692 625.469 48.9539 624.763 49.4435L598.356 67.7728C597.791 68.1649 597.065 68.2393 596.432 67.9698L578.656 60.3984C577.542 59.9241 576.266 60.5399 575.944 61.7068L550.476 154.058C549.978 155.861 547.498 156.055 546.726 154.351L525.793 108.146C525.469 107.431 524.756 106.971 523.971 106.971H503.96C503.073 106.971 502.292 106.387 502.041 105.537L478.122 24.3699C477.628 22.6909 475.367 22.4126 474.48 23.9214L449.453 66.482C448.85 67.5076 447.49 67.7831 446.535 67.0731L423.251 49.7569C422.397 49.1219 421.195 49.2666 420.517 50.0862L398.581 76.5788C398.201 77.0376 397.637 77.3033 397.041 77.3033H311.765C311.043 77.3033 310.377 76.9138 310.022 76.2845L294.581 48.8602C294.493 48.7035 294.384 48.5594 294.257 48.4318L267.798 21.8015C266.869 20.8662 265.305 21.0702 264.646 22.2125L254.847 39.2178C254.656 39.5481 254.375 39.8171 254.037 39.9932L217.967 58.7708C217.143 59.1994 216.133 59.0052 215.528 58.3018L194.257 33.6007C193.224 32.4013 191.274 32.82 190.824 34.3375L166.616 116.036C166.023 118.037 163.146 117.906 162.737 115.859L140.637 5.239C140.279 3.44636 137.902 3.03411 136.961 4.60146L116.161 39.2525C115.976 39.5609 115.711 39.8136 115.394 39.9841L88.5372 54.4474C88.4011 54.5207 88.274 54.6095 88.1584 54.712L63.8424 76.2782C63.1616 76.882 62.159 76.9501 61.4029 76.444L37.2937 60.3073C36.576 59.827 35.631 59.8615 34.9504 60.3931L13.8371 76.8796C13.4855 77.1541 13.0523 77.3033 12.6062 77.3033Z" fill="url(#paint0_linear_281_1740)"/>
<path d="M-15.2004 77.3033H12.6062C13.0523 77.3033 13.4855 77.1541 13.8371 76.8796L34.9504 60.3931C35.631 59.8615 36.576 59.827 37.2937 60.3073L61.4028 76.444C62.159 76.9501 63.1616 76.882 63.8424 76.2782L88.1584 54.712C88.274 54.6095 88.4011 54.5207 88.5372 54.4474L115.394 39.9841C115.711 39.8136 115.976 39.5609 116.161 39.2525L136.961 4.60146C137.902 3.03411 140.279 3.44636 140.637 5.239L162.737 115.859C163.146 117.906 166.023 118.037 166.616 116.036L190.824 34.3375C191.274 32.82 193.224 32.4013 194.257 33.6007L215.528 58.3018C216.133 59.0052 217.143 59.1994 217.967 58.7708L254.037 39.9932C254.375 39.8171 254.656 39.5481 254.847 39.2178L264.646 22.2125C265.305 21.0702 266.869 20.8662 267.798 21.8015L294.257 48.4318C294.384 48.5594 294.493 48.7035 294.581 48.8602L310.022 76.2845C310.377 76.9138 311.043 77.3033 311.765 77.3033H397.041C397.637 77.3033 398.201 77.0376 398.581 76.5788L420.517 50.0862C421.195 49.2666 422.397 49.1219 423.251 49.7569L446.535 67.0731C447.49 67.7831 448.85 67.5076 449.453 66.482L474.48 23.9214C475.367 22.4126 477.628 22.6909 478.122 24.3699L502.041 105.537C502.292 106.387 503.073 106.971 503.96 106.971H523.971C524.756 106.971 525.469 107.431 525.793 108.146L546.726 154.351C547.498 156.055 549.978 155.861 550.476 154.058L575.944 61.7068C576.266 60.5399 577.542 59.9241 578.656 60.3984L596.432 67.9698C597.065 68.2393 597.791 68.1649 598.356 67.7728L624.763 49.4435C625.469 48.9539 626.408 48.9692 627.097 49.4817L651.324 67.4989C652.043 68.0335 653.03 68.0248 653.739 67.4777L676.893 49.6206C677.645 49.0405 678.702 49.0695 679.421 49.69L710.867 76.8176C711.23 77.1309 711.694 77.3033 712.173 77.3033H850.107" stroke="#00DEA3" stroke-width="3"/>
<path d="M49.5813 111.337H-8.14325C-9.8001 111.337 -11.1432 112.68 -11.1432 114.337V231.692C-11.1432 233.349 -9.80011 234.692 -8.14326 234.692H835.52C837.177 234.692 838.52 233.349 838.52 231.692V114.337C838.52 112.68 837.177 111.337 835.52 111.337H816.283C816.064 111.337 815.845 111.313 815.63 111.265L768.884 100.836C768.669 100.788 768.45 100.764 768.231 100.764H711.579C711.206 100.764 710.836 100.833 710.488 100.969L684.46 111.131C684.112 111.267 683.742 111.337 683.368 111.337H648.454C648.039 111.337 647.629 111.423 647.25 111.589L626.706 120.595C626.494 120.688 626.293 120.806 626.107 120.945L606.413 135.754C606.189 135.923 605.99 136.121 605.821 136.345L594.265 151.658C593.875 152.176 593.327 152.553 592.704 152.733L573.965 158.152C573.562 158.269 573.187 158.469 572.865 158.74L551.709 176.572C550.541 177.557 548.819 177.506 547.711 176.455L498.88 130.134L474.515 111.684C474.212 111.455 473.868 111.285 473.501 111.184L435.692 100.764L418.668 94.1168C418.003 93.8573 417.267 93.8432 416.593 94.0772L368.613 110.729C367.539 111.101 366.347 110.835 365.534 110.042L350.783 95.6434C349.666 94.5533 347.9 94.5015 346.722 95.5242L329.342 110.603C328.797 111.076 328.099 111.337 327.376 111.337H291.538C290.647 111.337 289.802 110.941 289.232 110.256L275.652 93.9413C275.526 93.7906 275.386 93.6525 275.234 93.5291L258.282 79.8014C256.721 78.5377 254.384 79.1341 253.62 80.9909L248.669 93.0177C248.481 93.4752 248.182 93.8791 247.8 94.1933L227.773 110.654C227.236 111.096 226.563 111.337 225.868 111.337H205.496C204.773 111.337 204.075 111.598 203.53 112.071L159.911 149.916C158.429 151.202 156.132 150.743 155.259 148.986L125.887 89.934C125.045 88.2417 122.867 87.74 121.37 88.8936L70.0438 128.438C68.8018 129.395 67.0325 129.234 65.9834 128.069L51.8107 112.329C51.2418 111.698 50.4315 111.337 49.5813 111.337Z" fill="url(#paint1_linear_281_1740)" stroke="#5A55D2" stroke-width="3" stroke-linejoin="round"/>
</g>
<defs>
<linearGradient id="paint0_linear_281_1740" x1="432.758" y1="-124.324" x2="432.758" y2="132.191" gradientUnits="userSpaceOnUse">
<stop offset="0.171875" stop-color="#18BFEF"/>
<stop offset="0.880208" stop-color="#D3FF76" stop-opacity="0"/>
</linearGradient>
<linearGradient id="paint1_linear_281_1740" x1="427.08" y1="29.5" x2="428.58" y2="192.5" gradientUnits="userSpaceOnUse">
<stop offset="0.113029" stop-color="#5A55D2" stop-opacity="0.24"/>
<stop offset="1" stop-color="#5A55D2" stop-opacity="0"/>
</linearGradient>
</defs>
</svg>
