<svg width="18" height="25" viewBox="0 0 18 25" fill="none" xmlns="http://www.w3.org/2000/svg">
<path fill-rule="evenodd" clip-rule="evenodd" d="M15.8334 7.997C15.5867 5.43683 13.3766 4.57853 10.5862 4.33406L10.5861 0.782678L8.42383 0.783049L8.42396 4.24083C7.85626 4.24076 7.27537 4.25198 6.69824 4.2635L6.69856 0.782827L4.53803 0.782764L4.53723 4.33313C4.06921 4.34269 3.6096 4.35138 3.16144 4.35168L3.16115 4.34067L0.179645 4.33965L0.180213 6.64841C0.180213 6.64841 1.77654 6.61798 1.75001 6.64738C2.62561 6.64764 2.91117 7.15582 2.99348 7.59462L2.99367 11.6404C3.05409 11.6407 3.13292 11.6432 3.22216 11.6555L2.99439 11.6556L2.99327 17.3235C2.95484 17.599 2.79286 18.0384 2.18111 18.0395C2.20877 18.064 0.609722 18.039 0.609722 18.039L0.180357 20.6212L2.99408 20.621C3.3118 20.6214 3.62643 20.6248 3.9376 20.6282L3.93764 20.6282C4.13917 20.6304 4.33925 20.6325 4.53779 20.6339L4.53884 24.2262L6.69822 24.2266L6.69873 20.6726C7.29105 20.685 7.86483 20.6897 8.425 20.6892L8.42407 24.2267L10.5858 24.2264L10.5864 20.641C14.2207 20.4325 16.7649 19.5168 17.0797 16.1048C17.3348 13.3568 16.0426 12.1304 13.9795 11.6344C15.2325 10.9951 16.0161 9.87061 15.8328 7.99714L15.8334 7.997ZM12.8082 15.6773C12.8088 18.141 8.93788 18.0866 7.16834 18.0618C7.00988 18.0596 6.86827 18.0576 6.7478 18.0577L6.74835 13.2987C6.89563 13.2988 7.0745 13.2945 7.27713 13.2898C9.09072 13.2469 12.8074 13.1592 12.8088 15.6771L12.8082 15.6773ZM7.10408 11.1245C8.58145 11.1487 11.8018 11.2014 11.8024 8.96299C11.8027 6.67316 8.70454 6.75546 7.19147 6.79566C7.02137 6.80018 6.8713 6.80416 6.74792 6.80419L6.74779 11.1203C6.84963 11.1203 6.96964 11.1223 7.10408 11.1245Z" fill="#F4FFFC"/>
</svg>
