<svg width="18" height="24" viewBox="0 0 18 24" fill="none" xmlns="http://www.w3.org/2000/svg">
<path fill-rule="evenodd" clip-rule="evenodd" d="M15.8334 7.497C15.5867 4.93683 13.3766 4.07853 10.5862 3.83406L10.5861 0.282678L8.42383 0.283049L8.42396 3.74083C7.85626 3.74076 7.27537 3.75198 6.69824 3.7635L6.69856 0.282827L4.53803 0.282764L4.53723 3.83313C4.06921 3.84269 3.6096 3.85138 3.16144 3.85168L3.16115 3.84067L0.179645 3.83965L0.180213 6.14841C0.180213 6.14841 1.77654 6.11798 1.75001 6.14738C2.62561 6.14764 2.91117 6.65582 2.99348 7.09462L2.99367 11.1404C3.05409 11.1407 3.13292 11.1432 3.22216 11.1555L2.99439 11.1556L2.99327 16.8235C2.95484 17.099 2.79286 17.5384 2.18111 17.5395C2.20877 17.564 0.609722 17.539 0.609722 17.539L0.180357 20.1212L2.99408 20.121C3.3118 20.1214 3.62643 20.1248 3.9376 20.1282L3.93764 20.1282C4.13917 20.1304 4.33925 20.1325 4.53779 20.1339L4.53884 23.7262L6.69822 23.7266L6.69873 20.1726C7.29105 20.185 7.86483 20.1897 8.425 20.1892L8.42407 23.7267L10.5858 23.7264L10.5864 20.141C14.2207 19.9325 16.7649 19.0168 17.0797 15.6048C17.3348 12.8568 16.0426 11.6304 13.9795 11.1344C15.2325 10.4951 16.0161 9.37061 15.8328 7.49714L15.8334 7.497ZM12.8082 15.1773C12.8088 17.641 8.93788 17.5866 7.16834 17.5618C7.00988 17.5596 6.86827 17.5576 6.7478 17.5577L6.74835 12.7987C6.89563 12.7988 7.0745 12.7945 7.27713 12.7898C9.09072 12.7469 12.8074 12.6592 12.8088 15.1771L12.8082 15.1773ZM7.10408 10.6245C8.58145 10.6487 11.8018 10.7014 11.8024 8.46299C11.8027 6.17316 8.70454 6.25546 7.19147 6.29566C7.02137 6.30018 6.8713 6.30416 6.74792 6.30419L6.74779 10.6203C6.84963 10.6203 6.96964 10.6223 7.10408 10.6245Z" fill="#F4FFFC"/>
</svg>
