<svg width="18" height="18" viewBox="0 0 18 18" fill="none" xmlns="http://www.w3.org/2000/svg">
<path fill-rule="evenodd" clip-rule="evenodd" d="M9.83618 1.74974C9.83618 1.19746 9.38847 0.749741 8.83618 0.749741C8.2839 0.749741 7.83618 1.19746 7.83618 1.74974V8H1.58569C1.03341 8 0.585693 8.44772 0.585693 9C0.585693 9.55229 1.03341 10 1.58569 10H7.83618V16.2503C7.83618 16.8025 8.2839 17.2503 8.83618 17.2503C9.38847 17.2503 9.83618 16.8025 9.83618 16.2503V10H16.0862C16.6385 10 17.0862 9.55229 17.0862 9C17.0862 8.44772 16.6385 8 16.0862 8H9.83618V1.74974Z" fill="#FAFCFE"/>
</svg>
